<svg xmlns="http://www.w3.org/2000/svg" width="26.051" height="15.106" viewBox="0 0 26.051 15.106"><g transform="translate(1126.664 -370.509)"><path d="M48.822,128.929l.268-.438-.268-.438a16.133,16.133,0,0,0-3.223-3.563,14.536,14.536,0,0,0-19.038,0,16.289,16.289,0,0,0-3.248,3.561l-.274.442.274.442a16.29,16.29,0,0,0,3.248,3.561,14.536,14.536,0,0,0,19.038,0,16.126,16.126,0,0,0,3.223-3.563Zm-4.341,2.311a12.855,12.855,0,0,1-16.806,0,15.829,15.829,0,0,1-2.627-2.747,15.829,15.829,0,0,1,2.627-2.747,12.855,12.855,0,0,1,16.806,0,15.623,15.623,0,0,1,2.608,2.749A15.627,15.627,0,0,1,44.481,131.239Zm0,0" transform="translate(-1149.703 249.571)" fill="#fff"/><path d="M170.908,165.867a5.04,5.04,0,1,0,5.04,5.04A5.046,5.046,0,0,0,170.908,165.867Zm0,8.4a3.363,3.363,0,1,1,3.363-3.363A3.367,3.367,0,0,1,170.908,174.27Zm0,0" transform="translate(-1284.544 207.154)" fill="#fff"/></g></svg>