<svg xmlns="http://www.w3.org/2000/svg" width="81.794" height="51.12" viewBox="0 0 81.794 51.12"><g transform="translate(0 -96.003)"><g transform="translate(11.924 99.623)"><g transform="translate(0 0)"><path d="M127.3,150.09c-1.605-3.347-7.348-7.992-12.9-12.481-3.095-2.5-6.019-4.867-7.883-6.731a1.7,1.7,0,0,0-1.782-.4c-1.148.416-1.857.736-2.416.985a5.636,5.636,0,0,1-2.287.627,1.7,1.7,0,0,0-1.247.746c-2.41,3.6-4.9,3.3-6.571,2.737-.532-.177-.627-.406-.678-.624-.358-1.5,1.438-4.979,3.766-7.307,5.538-5.542,8.394-6.929,14.426-4.233,6.843,3.06,13.7,5.456,13.769,5.48a1.705,1.705,0,1,0,1.121-3.221c-.068-.024-6.789-2.372-13.5-5.375-7.815-3.493-12.1-1.193-18.227,4.935-2.331,2.331-5.5,7.048-4.679,10.507a4.215,4.215,0,0,0,2.928,3.071c3.861,1.275,7.385.054,10.01-3.428a8.6,8.6,0,0,0,2.559-.811c.32-.143.7-.31,1.193-.511,1.949,1.83,4.58,3.96,7.351,6.2,5.01,4.052,10.691,8.646,11.969,11.3a2,2,0,0,1-.508,2.559,1.878,1.878,0,0,1-2.1.412,1.7,1.7,0,0,0-2.662,1.585,2.059,2.059,0,0,1-1.305,1.919A2.615,2.615,0,0,1,115,158.1a1.7,1.7,0,0,0-2.859,1.087,3.238,3.238,0,0,1-2.011,2.611,1.8,1.8,0,0,1-1.956-.3,1.724,1.724,0,0,0-1.557-.4,1.7,1.7,0,0,0-1.2,1.074c-.065.17-.211.579-1.806.579a9.812,9.812,0,0,1-4.175-1.428c-1.2-.787-8.7-6.383-15.176-11.809-.91-.767-2.485-2.41-3.875-3.861-1.234-1.288-2.362-2.457-2.941-2.948a1.7,1.7,0,1,0-2.2,2.6c.528.447,1.551,1.527,2.679,2.7,1.52,1.588,3.091,3.231,4.148,4.117,6.346,5.313,13.973,11.049,15.493,12.048a13.074,13.074,0,0,0,6.049,1.984,5.865,5.865,0,0,0,3.868-1.138,5.3,5.3,0,0,0,3.875-.041,6.713,6.713,0,0,0,3.548-3.275,6.59,6.59,0,0,0,4.277-.617,5.782,5.782,0,0,0,2.846-2.972,5.573,5.573,0,0,0,3.909-1.4A5.418,5.418,0,0,0,127.3,150.09Z" transform="translate(-74.642 -118.658)" fill="#fff"/></g></g><g transform="translate(17.04 102.819)"><g transform="translate(0 0)"><path d="M123.707,138.663H108.37a1.7,1.7,0,0,0,0,3.408h15.336a1.7,1.7,0,1,0,0-3.408Z" transform="translate(-106.666 -138.663)" fill="#fff"/></g></g><g transform="translate(61.475 126.672)"><path d="M392.912,288.734a1.7,1.7,0,0,0-2.365-.463l-4.983,3.347a1.7,1.7,0,0,0,1.9,2.829l4.983-3.347A1.706,1.706,0,0,0,392.912,288.734Z" transform="translate(-384.811 -287.977)" fill="#fff"/></g><g transform="translate(46.012 124.969)"><path d="M301,287.908c-1.22-.961-6.676-6.547-10.051-10.064a1.7,1.7,0,1,0-2.461,2.358c.876.913,8.6,8.967,10.4,10.385a1.7,1.7,0,0,0,1.053.365,1.722,1.722,0,0,0,1.343-.651A1.7,1.7,0,0,0,301,287.908Z" transform="translate(-288.016 -277.317)" fill="#fff"/></g><g transform="translate(40.898 130.085)"><g transform="translate(0 0)"><path d="M267.3,318.231c-2.042-1.633-7.171-7.082-8.329-8.343a1.705,1.705,0,0,0-2.512,2.307c.061.065,6.182,6.673,8.711,8.7a1.7,1.7,0,0,0,2.13-2.662Z" transform="translate(-256.005 -309.337)" fill="#fff"/></g></g><g transform="translate(34.083 133.488)"><g transform="translate(0 0)"><path d="M224.667,339.566c-2.43-2.048-7.4-7.341-8.374-8.381a1.7,1.7,0,1,0-2.491,2.328c1.4,1.5,6.155,6.54,8.667,8.66a1.705,1.705,0,0,0,2.2-2.607Z" transform="translate(-213.343 -330.644)" fill="#fff"/></g></g><g transform="translate(0 96.003)"><g transform="translate(0 0)"><path d="M19.917,99.877C17,97.11,5.317,96.214,1.806,96.006A1.7,1.7,0,0,0,0,97.706v30.673a1.7,1.7,0,0,0,1.7,1.7H11.928a1.7,1.7,0,0,0,1.619-1.176c.249-.763,6.121-18.785,6.895-27.647A1.7,1.7,0,0,0,19.917,99.877Zm-9.233,26.8H3.408V99.533c5.477.433,11.387,1.373,13.534,2.416C16.039,109.413,11.952,122.674,10.684,126.675Z" transform="translate(0 -96.003)" fill="#fff"/></g></g><g transform="translate(57.998 99.411)"><path d="M385.138,117.33c-13.38,0-20.8,3.425-21.113,3.568a1.7,1.7,0,0,0-.91,1.06,1.718,1.718,0,0,0,.187,1.384c2.106,3.391,8.7,22.224,9.969,26.818a1.7,1.7,0,0,0,1.643,1.251h10.224a1.7,1.7,0,0,0,1.7-1.7V119.034A1.7,1.7,0,0,0,385.138,117.33ZM383.434,148h-7.246c-1.615-5.262-6.387-18.983-9.049-24.654a55.5,55.5,0,0,1,16.294-2.59Z" transform="translate(-363.046 -117.33)" fill="#fff"/></g></g></svg>