<svg xmlns="http://www.w3.org/2000/svg" xmlns:xlink="http://www.w3.org/1999/xlink" width="50.574" height="45.133" viewBox="0 0 50.574 45.133"><defs><linearGradient id="a" x1="-0.086" y1="0.143" x2="1.088" y2="0.857" gradientUnits="objectBoundingBox"><stop offset="0" stop-color="#f2e808"/><stop offset="1" stop-color="#65b761"/></linearGradient><linearGradient id="b" x1="0.127" y1="0.154" x2="0.872" y2="0.845" gradientUnits="objectBoundingBox"><stop offset="0" stop-color="#f7d600"/><stop offset="1" stop-color="#d9312d"/></linearGradient><linearGradient id="c" x1="0.277" y1="0.077" x2="0.724" y2="0.923" gradientUnits="objectBoundingBox"><stop offset="0" stop-color="#31afb3"/><stop offset="1" stop-color="#128ac7"/></linearGradient><linearGradient id="d" x1="-0.113" y1="0.146" x2="1.114" y2="0.853" gradientUnits="objectBoundingBox"><stop offset="0" stop-color="#cf336b"/><stop offset="0.412" stop-color="#8e3879"/><stop offset="1" stop-color="#4d3d87"/></linearGradient><linearGradient id="e" x1="0.827" y1="0.293" x2="0.175" y2="0.707" xlink:href="#a"/><linearGradient id="f" x1="0.242" y1="0.133" x2="0.757" y2="0.868" xlink:href="#b"/><linearGradient id="g" x1="-0.021" y1="0.286" x2="1.02" y2="0.714" xlink:href="#b"/><linearGradient id="h" x1="0.24" y1="0.007" x2="0.758" y2="0.993" xlink:href="#b"/><linearGradient id="i" x1="1.229" y1="0.141" x2="-0.229" y2="0.859" xlink:href="#d"/><linearGradient id="j" x1="1.54" y1="0.627" x2="-0.54" y2="0.372" xlink:href="#d"/><linearGradient id="k" x1="0.641" y1="0.631" x2="0.359" y2="0.369" xlink:href="#c"/><linearGradient id="l" x1="0.827" y1="1.494" x2="0.173" y2="-0.494" xlink:href="#c"/><linearGradient id="m" x1="1.123" y1="0.811" x2="-0.123" y2="0.19" gradientUnits="objectBoundingBox"><stop offset="0" stop-color="#31afb3"/><stop offset="1" stop-color="#0079b5"/></linearGradient><linearGradient id="n" x1="0.418" y1="-0.224" x2="0.583" y2="1.225" xlink:href="#a"/></defs><g transform="translate(16716.246 144.133)"><g transform="translate(-16712.924 -140.81)"><path d="M10542,11391h12.336l-12.336,12.307Z" transform="translate(-10542 -11390.999)" fill-rule="evenodd" fill="url(#a)"/><path d="M10644,11504.737l10.736-10.737,14.8,25.442Z" transform="translate(-10640.86 -11490.831)" fill-rule="evenodd" fill="url(#b)"/><path d="M10542,11910l24.274,13.937H10542Z" transform="translate(-10542 -11894.033)" fill-rule="evenodd" fill="url(#c)"/><path d="M11057,11391l14.091,24.183V11391Z" transform="translate(-11041.155 -11390.999)" fill-rule="evenodd" fill="url(#d)"/><path d="M10542,11396.383l12.336-5.384-12.336,12.307Z" transform="translate(-10542 -11390.999)" fill-rule="evenodd" fill="url(#e)"/><path d="M10644,11504.737l10.736-10.737,7.6,21.289Z" transform="translate(-10640.86 -11490.831)" fill-rule="evenodd" fill="url(#f)"/><path d="M10717,11885l15.659.337,2.031,3.477-5.046,3.478Z" transform="translate(-10711.616 -11869.803)" fill-rule="evenodd" fill="url(#g)"/><path d="M10644,11504.737l10.736-10.737.523,17.228Z" transform="translate(-10640.86 -11490.831)" fill-rule="evenodd" fill="url(#h)"/><path d="M11320,11391h6v24.183Z" transform="translate(-11296.064 -11390.999)" fill-rule="evenodd" fill="url(#i)"/><path d="M11344,11598.046l3.569-6.155.8-1.353.892-1.538v18.09Z" transform="translate(-11319.326 -11582.909)" fill-rule="evenodd" fill="url(#j)"/><path d="M10542,12115l24.274,7.63H10542Z" transform="translate(-10542 -12092.726)" fill-rule="evenodd" fill="url(#k)"/><path d="M10805.676,12191.446l-9.509-5.446-7.167,5.446Z" transform="translate(-10781.4 -12161.541)" fill-rule="evenodd" fill="url(#l)"/><path d="M11026.769,12188.737,11022,12186l.062,5.446Z" transform="translate(-11007.233 -12161.541)" fill-rule="evenodd" fill="url(#m)"/><path d="M10542,11391h12.336l-5.722,5.691Z" transform="translate(-10542 -11390.999)" fill-rule="evenodd" fill="url(#n)"/></g><g transform="translate(-16716.246 -144.133)"><path d="M11486,12327.369l2.338-2.369,5.26,5.353h5.231l5.383,5.415-2.4,2.308-4.522-4.615-5.229.03Z" transform="translate(-11453.636 -12292.942)" fill-rule="evenodd"/><path d="M10434,11319.487V11283h36.489v36.486H10434Zm17.137-30-10.706,10.707,25.474,14.645Zm16.061,20.952v-24.12h-14.06Zm-29.874-8.215v13.936h24.213Zm12.307-15.905h-12.307v12.274Z" transform="translate(-10433.999 -11283.001)" fill-rule="evenodd"/></g></g></svg>